<?xml version="1.0" standalone="no"?>
<!DOCTYPE svg PUBLIC "-//W3C//DTD SVG 20010904//EN"
 "http://www.w3.org/TR/2001/REC-SVG-20010904/DTD/svg10.dtd">
<svg version="1.0" xmlns="http://www.w3.org/2000/svg"
 width="160.000000pt" height="160.000000pt" viewBox="0 0 160.000000 160.000000"
 preserveAspectRatio="xMidYMid meet">
<metadata>
Created by potrace 1.11, written by Peter Selinger 2001-2013
</metadata>
<g transform="translate(0.000000,160.000000) scale(0.100000,-0.100000)"
fill="#000000" stroke="none">
<path d="M761 1493 c-6 -10 -11 -13 -11 -7 0 15 -33 12 -43 -4 -6 -9 -13 -9
-28 -2 -12 7 -19 7 -19 1 0 -6 -7 -8 -15 -5 -8 4 -15 1 -15 -5 0 -9 -5 -9 -21
0 -12 6 -19 7 -15 1 3 -5 -2 -16 -11 -23 -12 -10 -14 -10 -9 -1 10 17 -9 15
-27 -3 -8 -8 -17 -11 -21 -8 -3 4 -6 1 -6 -5 0 -6 -7 -9 -15 -6 -8 4 -17 -1
-21 -10 -3 -9 -10 -16 -16 -16 -5 0 -6 6 -3 13 4 6 -2 3 -12 -8 -26 -29 -72
-57 -83 -50 -5 3 -7 -4 -5 -15 2 -13 -1 -20 -11 -20 -8 0 -17 -7 -20 -15 -4
-8 -10 -13 -14 -10 -5 3 -11 -4 -15 -15 -4 -11 -11 -18 -16 -14 -6 3 -13 -3
-16 -15 -3 -12 -10 -21 -15 -21 -5 0 -6 -5 -2 -12 5 -7 3 -8 -5 -4 -8 5 -14 0
-18 -13 -3 -12 -10 -18 -17 -14 -6 3 -8 3 -4 -2 4 -4 2 -17 -4 -29 -7 -11 -13
-23 -14 -26 -5 -21 -17 -39 -24 -35 -5 3 -6 -5 -2 -17 3 -11 1 -19 -4 -16 -5
4 -10 -4 -10 -15 -3 -34 -8 -51 -19 -59 -6 -5 -4 -12 5 -18 13 -9 13 -10 0
-10 -13 0 -13 -1 0 -10 8 -5 10 -10 4 -10 -15 0 -23 -67 -10 -80 6 -6 6 -10 0
-10 -9 0 -9 -32 -1 -93 3 -15 0 -30 -5 -33 -5 -3 -4 -12 3 -20 9 -11 9 -14 0
-14 -9 0 -9 -5 -1 -20 8 -15 8 -20 -1 -20 -8 0 -9 -4 0 -13 6 -8 8 -17 4 -20
-3 -4 -1 -7 6 -7 8 0 11 -8 8 -19 -3 -15 -1 -18 11 -14 10 4 13 2 8 -5 -3 -6
-2 -13 3 -17 5 -3 8 -14 6 -25 -2 -12 0 -18 6 -15 5 4 9 -1 9 -9 0 -9 5 -16
10 -16 6 0 10 -7 10 -15 0 -8 5 -15 11 -15 5 0 8 -4 5 -9 -9 -14 5 -41 21 -41
8 0 11 -4 8 -10 -3 -5 -1 -10 5 -10 6 0 8 -5 5 -10 -3 -6 -1 -10 5 -10 6 0 8
-5 4 -12 -4 -6 -3 -8 4 -4 6 3 19 -5 30 -19 11 -14 25 -25 31 -25 6 0 11 -7
11 -16 0 -8 4 -12 10 -9 5 3 10 1 10 -6 0 -7 3 -10 6 -6 3 3 14 -3 25 -14 11
-11 25 -17 31 -13 6 4 9 3 6 -2 -7 -12 11 -28 37 -32 11 -2 28 -11 37 -19 9
-8 21 -12 26 -9 5 3 21 -3 35 -14 19 -15 27 -17 30 -8 4 10 6 10 6 1 1 -7 10
-13 20 -13 11 0 23 -5 26 -10 4 -7 12 -7 25 0 14 7 21 7 27 -2 12 -19 43 -19
43 0 0 13 3 12 15 -4 11 -14 14 -15 15 -4 0 13 1 13 10 0 7 -11 10 -11 10 -2
0 10 5 10 20 2 15 -8 20 -8 20 1 0 8 5 7 16 -2 20 -16 42 -20 50 -8 3 5 10 7
15 4 5 -4 9 -2 9 3 0 8 6 10 50 14 11 1 20 6 20 11 0 4 5 5 10 2 6 -3 10 -1
10 5 0 6 5 8 10 5 6 -3 10 -1 10 5 0 6 4 9 9 5 5 -3 16 2 24 10 19 18 31 20
22 3 -4 -7 1 -4 9 6 9 11 16 16 16 12 0 -5 9 2 21 15 11 13 18 17 14 9 -4 -8
1 -6 9 4 9 11 16 17 16 13 0 -5 6 -2 14 5 8 7 11 17 8 22 -3 5 0 6 7 2 8 -5
24 5 43 25 17 19 28 27 24 19 -4 -8 0 -6 8 4 9 11 16 27 16 35 0 14 1 14 10 1
8 -13 10 -12 10 3 0 10 7 20 15 23 8 4 15 12 15 20 0 8 5 14 11 14 5 0 8 4 5
9 -3 5 1 11 9 15 8 3 15 15 15 26 0 11 5 20 10 20 6 0 10 9 10 21 0 11 4 17
10 14 6 -3 7 1 4 9 -3 9 -1 16 6 16 6 0 8 5 5 10 -3 6 -1 10 5 10 6 0 8 5 5
10 -3 5 -2 10 4 10 5 0 8 9 6 20 -2 11 1 20 6 20 6 0 7 9 4 21 -6 16 -4 20 6
13 12 -6 12 -5 0 9 -7 9 -9 17 -4 17 6 0 9 10 9 23 -1 12 2 28 7 35 6 8 5 18
-4 29 -12 15 -12 16 1 8 13 -8 13 -7 1 8 -7 9 -9 17 -4 17 5 0 9 9 9 20 0 11
-3 20 -7 20 -4 0 -6 8 -4 18 1 9 -2 27 -6 40 -5 13 -5 21 0 18 4 -3 6 6 3 19
-2 14 -7 25 -11 25 -3 0 -7 12 -8 26 0 15 -7 30 -15 35 -10 7 -10 9 2 9 12 0
12 2 2 9 -7 4 -14 18 -15 29 -1 12 -5 22 -9 22 -4 0 -8 6 -8 14 0 8 -6 17 -12
19 -10 4 -9 6 1 6 9 1 6 8 -9 21 -13 11 -20 20 -17 20 4 0 -2 9 -13 20 -12 12
-19 24 -16 28 2 4 -2 13 -10 20 -8 7 -14 10 -14 6 0 -3 -13 8 -30 26 -16 18
-27 36 -24 41 3 5 -3 6 -12 2 -13 -5 -15 -3 -9 7 6 10 4 12 -8 7 -11 -4 -17
-1 -17 8 0 8 -11 17 -25 21 -14 3 -22 10 -19 15 3 5 -4 9 -15 9 -12 0 -21 5
-21 10 0 6 -7 10 -15 10 -8 0 -15 5 -15 10 0 6 -9 10 -20 10 -11 0 -20 4 -20
8 0 4 -10 8 -22 9 -11 1 -24 6 -27 10 -6 8 -33 14 -63 14 -10 0 -18 5 -18 11
0 7 -5 7 -14 -1 -10 -8 -16 -8 -24 1 -11 14 -101 16 -122 3 -10 -6 -12 -4 -7
8 8 22 1 22 -12 0z"/>
</g>
</svg>
